<?xml version="1.0" encoding="UTF-8" standalone="no"?>
<svg
   xmlns:dc="http://purl.org/dc/elements/1.1/"
   xmlns:cc="http://creativecommons.org/ns#"
   xmlns:rdf="http://www.w3.org/1999/02/22-rdf-syntax-ns#"
   xmlns:svg="http://www.w3.org/2000/svg"
   xmlns="http://www.w3.org/2000/svg"
   xmlns:sodipodi="http://sodipodi.sourceforge.net/DTD/sodipodi-0.dtd"
   xmlns:inkscape="http://www.inkscape.org/namespaces/inkscape"
   sodipodi:docname="info.svg"
   inkscape:version="1.0 (4035a4fb49, 2020-05-01)"
   id="svg8"
   version="1.1"
   viewBox="0 0 5.2916665 5.2916668"
   height="20"
   width="20">
  <defs
     id="defs2" />
  <sodipodi:namedview
     inkscape:window-maximized="1"
     inkscape:window-y="-8"
     inkscape:window-x="-8"
     inkscape:window-height="1017"
     inkscape:window-width="1920"
     units="px"
     showgrid="false"
     inkscape:document-rotation="0"
     inkscape:current-layer="layer1"
     inkscape:document-units="mm"
     inkscape:cy="12.122931"
     inkscape:cx="12.146252"
     inkscape:zoom="7.7102273"
     inkscape:pageshadow="2"
     inkscape:pageopacity="0"
     borderopacity="1.0"
     bordercolor="#666666"
     pagecolor="#ffffff"
     id="base" />
  <metadata
     id="metadata5">
    <rdf:RDF>
      <cc:Work
         rdf:about="">
        <dc:format>image/svg+xml</dc:format>
        <dc:type
           rdf:resource="http://purl.org/dc/dcmitype/StillImage" />
        <dc:title></dc:title>
      </cc:Work>
    </rdf:RDF>
  </metadata>
  <g
     id="layer1"
     inkscape:groupmode="layer"
     inkscape:label="Layer 1">
    <g
       transform="translate(-0.11433367,-0.08157205)"
       style="font-style:normal;font-variant:normal;font-weight:normal;font-stretch:normal;font-size:4.9389px;line-height:1.25;font-family:'Albertus Extra Bold';-inkscape-font-specification:'Albertus Extra Bold, ';letter-spacing:0px;word-spacing:0px;fill:#4d4d4d;fill-opacity:1;stroke:none;stroke-width:0.264583"
       id="text1411"
       aria-label="i">
      <path
         id="path1413"
         style="font-style:normal;font-variant:normal;font-weight:normal;font-stretch:normal;font-family:'Albertus Extra Bold';-inkscape-font-specification:'Albertus Extra Bold, ';fill:#4d4d4d;fill-opacity:1;stroke-width:0.264583"
         d="M 2.2947336,3.90787 V 2.8757171 q 0,-0.2700961 -0.028939,-0.4485525 Q 2.2392674,2.2487083 2.1693318,2.0823098 H 2.760167 3.3510022 Q 3.2690087,2.2438851 3.2352467,2.4946886 3.2014847,2.7454922 3.2014847,3.1940446 V 3.90787 q 0,0.2700961 0.026527,0.4485524 0.028939,0.1784564 0.098874,0.3448549 H 2.7481091 2.1693318 Q 2.2392674,4.5348788 2.2682063,4.3564224 2.2947336,4.1779661 2.2947336,3.90787 Z M 2.7553439,0.75353346 q 0.2266877,0 0.3810284,0.1567522 0.1567522,0.15434064 0.1567522,0.38102844 0,0.2266878 -0.1567522,0.38344 -0.1543407,0.1543406 -0.3810284,0.1543406 -0.2266878,0 -0.38344,-0.1543406 -0.1543407,-0.1567522 -0.1543407,-0.38344 0,-0.2266878 0.1543407,-0.38102844 0.1567522,-0.1567522 0.38344,-0.1567522 z" />
    </g>
  </g>
</svg>
