<?xml version="1.0" encoding="UTF-8" standalone="no"?>
<svg
   xmlns:dc="http://purl.org/dc/elements/1.1/"
   xmlns:cc="http://creativecommons.org/ns#"
   xmlns:rdf="http://www.w3.org/1999/02/22-rdf-syntax-ns#"
   xmlns:svg="http://www.w3.org/2000/svg"
   xmlns="http://www.w3.org/2000/svg"
   width="78"
   height="90"
   viewBox="0 0 20.6375 23.8125"
   version="1.1"
   id="svg899">
  <defs
     id="defs893" />
  <metadata
     id="metadata896">
    <rdf:RDF>
      <cc:Work
         rdf:about="">
        <dc:format>image/svg+xml</dc:format>
        <dc:type
           rdf:resource="http://purl.org/dc/dcmitype/StillImage" />
        <dc:title></dc:title>
      </cc:Work>
    </rdf:RDF>
  </metadata>
  <path
     d="M 20.617631,17.876582 10.298881,23.812498 9.9529761e-8,17.842165 0.01986818,5.935915 10.338618,7.4279313e-8 20.6375,5.9703352 Z"
     id="path861"
     style="fill:#ffffff;fill-opacity:1;fill-rule:nonzero;stroke:none;stroke-width:0.645277;stroke-linecap:round;stroke-linejoin:round;stroke-miterlimit:4;stroke-dasharray:none;stroke-dashoffset:0;stroke-opacity:1;paint-order:markers stroke fill" />
  <path
     id="path825"
     d="m 3.621485,14.82565 c 0,0 0.90186,-4.55156 1.63663,-5.63854 0.73476,-1.08697 1.45826,-1.30264 1.45826,-1.30264 l 0.18525,0.94003 c -0.80987,1.86007 -0.47087,2.31915 -0.95822,4.24686 z"
     style="fill:#c10000;fill-opacity:1;stroke:none;stroke-width:0.264583px;stroke-linecap:butt;stroke-linejoin:miter;stroke-opacity:1" />
  <path
     id="path823"
     d="m 12.593875,5.97795 c 0,0 -5.27414,-0.65323 -6.71181,-0.30402 -1.43766,0.34921 -1.87088,1.07576 -1.87088,1.07576 0,0 1.78084,0.35545 3.08696,0.49111 1.30613,0.13566 4.74738,0.23386 4.74738,0.23386 z"
     style="fill:#c10000;fill-opacity:1;stroke:none;stroke-width:0.264583px;stroke-linecap:butt;stroke-linejoin:miter;stroke-opacity:1" />
  <path
     id="path829"
     d="m 15.544505,9.98233 c -0.16661,0.003 -0.30796,0.12318 -0.33789,0.28711 l -0.4375,2.27343 c -0.0237,0.12235 0.0195,0.24806 0.11328,0.33008 l 0.48828,0.42188 -1.57031,0.11914 c -0.3692,0.0285 -0.44715,0.53586 -0.10351,0.67383 l 1.01562,0.40234 -1.06836,0.12305 c -0.35969,0.0417 -0.42713,0.53524 -0.0918,0.67187 l 1.05469,0.42774 -1.20899,0.16992 c -0.37202,0.0508 -0.41385,0.57216 -0.0547,0.68164 l 1.26758,0.39258 c -0.16771,0.32631 -0.43968,0.59602 -0.85123,0.75957 0.65997,0.014 1.90813,-0.28405 2.22623,-0.38653 0.31811,-0.10248 0.35101,-0.56514 0.0176,-0.67187 l -0.96093,-0.29883 0.95117,-0.13281 c 0.35239,-0.0507 0.41296,-0.53385 0.084,-0.66993 l -0.99414,-0.40429 1.09375,-0.125 c 0.36363,-0.0397 0.43037,-0.54025 0.0898,-0.67383 l -0.89649,-0.35547 0.89063,-0.0664 c 0.31003,-0.0235 0.43784,-0.40937 0.20312,-0.61328 l -0.9707,-0.84179 0.40039,-2.07422 c 0.0448,-0.21962 -0.1255,-0.42417 -0.34961,-0.41992 z"
     style="color:#000000;font-style:normal;font-variant:normal;font-weight:normal;font-stretch:normal;font-size:medium;line-height:normal;font-family:sans-serif;font-variant-ligatures:normal;font-variant-position:normal;font-variant-caps:normal;font-variant-numeric:normal;font-variant-alternates:normal;font-feature-settings:normal;text-indent:0;text-align:start;text-decoration:none;text-decoration-line:none;text-decoration-style:solid;text-decoration-color:#000000;letter-spacing:normal;word-spacing:normal;text-transform:none;writing-mode:lr-tb;direction:ltr;text-orientation:mixed;dominant-baseline:auto;baseline-shift:baseline;text-anchor:start;white-space:normal;shape-padding:0;clip-rule:nonzero;display:inline;overflow:visible;visibility:visible;isolation:auto;mix-blend-mode:normal;color-interpolation:sRGB;color-interpolation-filters:linearRGB;solid-color:#000000;solid-opacity:1;vector-effect:none;fill:#c10000;fill-opacity:1;fill-rule:nonzero;stroke:none;stroke-width:0.7;stroke-linecap:round;stroke-linejoin:round;stroke-miterlimit:4;stroke-dasharray:none;stroke-dashoffset:0;stroke-opacity:1;color-rendering:auto;image-rendering:auto;shape-rendering:auto;text-rendering:auto;enable-background:accumulate" />
  <path
     d="m 15.655597,-7.5829158 c 1.508136,0 2.722267,1.2141311 2.722267,2.7222669 V 6.0284183 c 0,1.5081359 -1.214131,2.7222669 -2.722267,2.7222669 -1.508135,0 -2.722266,-1.214131 -2.722266,-2.7222669 V -4.8606489 c 0,-1.5081358 1.214131,-2.7222669 2.722266,-2.7222669 z"
     transform="rotate(47.28175)"
     style="fill:#c10000;fill-opacity:1;fill-rule:nonzero;stroke:#ffffff;stroke-width:1;stroke-linecap:round;stroke-linejoin:round;stroke-miterlimit:4;stroke-dasharray:none;stroke-dashoffset:0;stroke-opacity:1;paint-order:markers stroke fill"
     id="rect817" />
  <g
     style="font-style:normal;font-variant:normal;font-weight:normal;font-stretch:normal;font-size:8.27976px;line-height:1.25;font-family:'Days One';-inkscape-font-specification:'Days One';letter-spacing:0px;word-spacing:0px;fill:#ffffff;fill-opacity:1;stroke:none;stroke-width:0.443558"
     id="text821"
     transform="rotate(49.114045)"
     aria-label="+">
    <path
       id="path2739"
       style="font-style:normal;font-variant:normal;font-weight:normal;font-stretch:normal;font-family:'Days One';-inkscape-font-specification:'Days One';fill:#ffffff;fill-opacity:1;stroke-width:0.443558"
       d="m 13.797419,-2.7578397 v -0.4810994 q 0,-0.109157 0.06873,-0.1778855 0.07277,-0.072771 0.177885,-0.072771 h 1.010713 V -4.496266 q 0,-0.109157 0.06873,-0.1778855 0.07277,-0.072771 0.181928,-0.072771 h 0.477056 q 0.109157,0 0.177886,0.072771 0.07277,0.068728 0.07277,0.1778855 v 1.0066701 h 1.059227 q 0.109157,0 0.177886,0.072771 0.07277,0.068729 0.07277,0.1778855 v 0.4810994 q 0,0.109157 -0.07277,0.1778854 -0.06873,0.068728 -0.177886,0.068728 h -1.059227 v 1.0592272 q 0,0.109157 -0.07277,0.1819283 -0.06873,0.068728 -0.177886,0.068728 h -0.477056 q -0.109157,0 -0.181928,-0.068728 -0.06873,-0.072771 -0.06873,-0.1819283 v -1.0592272 h -1.010713 q -0.109157,0 -0.177885,-0.068728 -0.06873,-0.068728 -0.06873,-0.1778854 z" />
  </g>
</svg>
